M48
INCH,TZ
T1C0.031
T2C0.032
T3C0.040
T4C0.040
T5C0.063
T6C0.079
%
G90
G05
T1
X53854Y-61500
X56000Y-61500
X58146Y-61500
X61200Y-53100
X62200Y-53100
X78254Y-61100
X80400Y-61100
X81454Y-66400
X82500Y-64400
X82500Y-65400
X82500Y-66400
X82500Y-67400
X82546Y-61100
X83600Y-66400
X85700Y-56128
X85700Y-57900
X85700Y-59672
X85746Y-66400
T2
X54000Y-49900
X59000Y-49900
X59700Y-46100
X60200Y-49000
X60200Y-50000
X60200Y-52000
X61200Y-49000
X61200Y-52000
X62100Y-45000
X62100Y-50000
X62200Y-49000
X62200Y-52000
X63200Y-49000
X63200Y-52000
X63200Y-54400
X63200Y-55400
X64200Y-49000
X64200Y-52000
X64700Y-46100
X65200Y-49000
X65200Y-50000
X65200Y-52000
X65300Y-55100
X65300Y-60100
X65600Y-45800
X65600Y-50800
X66200Y-49000
X66200Y-52000
X67200Y-49000
X67200Y-52000
X67600Y-54400
X67600Y-55400
X68200Y-49000
X68200Y-52000
X69200Y-49000
X69200Y-52000
X69200Y-55000
X69200Y-60000
X70200Y-49000
X70200Y-52000
X70800Y-55000
X70800Y-60000
X71200Y-49000
X71200Y-52000
X72200Y-49000
X72200Y-52000
X72200Y-54400
X72200Y-55400
X73200Y-49000
X73200Y-52000
X74900Y-56100
X74900Y-61100
X77400Y-42800
X77400Y-47800
X78600Y-54300
X78700Y-57100
X78700Y-58600
X79800Y-42200
X79800Y-47200
X81200Y-47800
X81200Y-49900
X81200Y-53900
X82800Y-44400
X83200Y-47800
X83600Y-54300
X83700Y-57100
X83700Y-58600
X86800Y-44400
T3
X68200Y-45100
X68200Y-46100
X69200Y-45100
X69200Y-46100
X70200Y-45100
X70200Y-46100
T4
X78200Y-50000
X78200Y-51000
X78200Y-52000
X81300Y-55900
X81300Y-59900
T5
X52296Y-56696
X57304Y-56696
T6
X85830Y-50800
X87602Y-50800
T1
X51240Y-59043G85X51240Y-59357
G05
X52100Y-43123G85X52100Y-42729
G05
X52100Y-50997G85X52100Y-50603
G05
X52100Y-52178G85X52100Y-51784
G05
X54643Y-55600G85X54957Y-55600
G05
X56000Y-43123G85X56000Y-42729
G05
X56000Y-50997G85X56000Y-50603
G05
X56000Y-52178G85X56000Y-51784
G05
X58340Y-59023G85X58340Y-59337
G05
T0
M30
